PathFileType	4	(x/y/z)	A01_PREF_T0018.trc
DataRate	CameraRate	NumFrames	NumMarkers	Units	OrigDataRate	OrigDataStartFrame	OrigNumFrames
240	240	9	48	mm	240	1	310
Frame#	Time	TOP_HEAD			R_AC			L_AC			R_ASIS			L_ASIS			R_PSIS			L_PSIS			SACRAL			L_IC			R_IC			L_GT			R_GT			R_LAT_KNEE			R_MED_KNEE			L_MED_KNEE			L_LAT_KNEE			R_TOE			L_TOE			R_1ST_MET			L_1ST_MET			L_5TH_MET			R_5TH_MET			R_LAT_ANK			R_MED_ANK			L_MED_ANK			L_LAT_ANK			L_HEEL_SUP			R_HEEL_SUP			L_HEEL_LAT			R_HEEL_LAT			L_HEEL_MED			R_HEEL_MED			R_LL_PROX_POST			R_LL_PROX_ANT			R_LL_DIST_ANT			R_LL_DIST_POST			R_THIGH_PROX_POST			R_THIGH_PROX_ANT			R_THIGH_DIST_ANT			R_THIGH_DIST_POST			L_PROS_PROX_ANT			L_PROS_PROX_POST			L_PROS_DIST_POST			L_PROS_DIST_ANT			L_THIGH_PROX_ANT			L_THIGH_PROX_POST			L_THIGH_DIST_POST			L_THIGH_DIST_ANT			
		X1	Y1	Z1	X2	Y2	Z2	X3	Y3	Z3	X4	Y4	Z4	X5	Y5	Z5	X6	Y6	Z6	X7	Y7	Z7	X8	Y8	Z8	X9	Y9	Z9	X10	Y10	Z10	X11	Y11	Z11	X12	Y12	Z12	X13	Y13	Z13	X14	Y14	Z14	X15	Y15	Z15	X16	Y16	Z16	X17	Y17	Z17	X18	Y18	Z18	X19	Y19	Z19	X20	Y20	Z20	X21	Y21	Z21	X22	Y22	Z22	X23	Y23	Z23	X24	Y24	Z24	X25	Y25	Z25	X26	Y26	Z26	X27	Y27	Z27	X28	Y28	Z28	X29	Y29	Z29	X30	Y30	Z30	X31	Y31	Z31	X32	Y32	Z32	X33	Y33	Z33	X34	Y34	Z34	X35	Y35	Z35	X36	Y36	Z36	X37	Y37	Z37	X38	Y38	Z38	X39	Y39	Z39	X40	Y40	Z40	X41	Y41	Z41	X42	Y42	Z42	X43	Y43	Z43	X44	Y44	Z44	X45	Y45	Z45	X46	Y46	Z46	X47	Y47	Z47	X48	Y48	Z48	

1	0	-601.52	1749.9	340.66	-807.27	1555.6	597.72	-886.88	1555.5	145.65	-859.03	1091.8	575.52	-847.82	1031.4	222.58	-1071.9	1104.5	438.46	-1058	1090.6	309.55	-1083	1068.9	372.9	-891.69	1148.1	184.43	-884.28	1202.5	581.56	-900.39	950.81	177.7	-941.91	988.41	609.45	-1055.1	594.28	542.25	-907.09	574.89	417.79	-742.86	569.43	400.66	-770.72	572.08	242.34	-989.94	64.494	443.66	-370.75	219.51	267.83	-1071.1	52.509	397.94	-425.25	155.15	323.09	-451.27	137.56	193.69	-1096.7	46.041	532.27	-1192.9	144.14	508.56	-1184.3	149.43	405.48	-577.51	164.63	312.25	-602.28	147.52	244.45	-650.12	56.923	281.85	-1295.8	136.28	453.08	-627.49	37.477	248.12	-1295.5	112.58	487.42	-615.94	39.124	312.67	-1291.9	107.5	426.7	-1189.1	444.81	537.45	-1123.1	419.97	557.98	-1136.9	346.94	540.1	-1190	361.81	527.69	-1016.7	866.13	583.95	-944.91	867.28	595.4	-963.56	778	584.47	-1031.4	778.01	572.23	-690.83	520.31	249.75	-738.64	494.7	238.87	-714.89	436.01	242.91	-672.03	467.03	254.14	-794.46	830.38	220.9	-858	814.08	192.28	-826.56	746.09	208.03	-769.25	761.88	234.28
2	0.0041802	-596.53	1748.6	339.85	-802.3	1554.5	597.04	-882.19	1554.4	145.06	-853.95	1090.8	575.09	-842.62	1030.4	222.19	-1067	1103.5	437.75	-1053	1089.5	308.86	-1078	1067.9	372.2	-886.2	1147.1	183.95	-879.62	1201.6	581.04	-894.98	949.75	177.42	-937.37	987.66	609.08	-1051.8	593.97	541.98	-903.34	574.11	418.06	-737	568.71	400.73	-765.09	571.12	242.48	-989.9	64.511	443.63	-364.83	218.71	268.17	-1071	52.406	397.92	-419.3	154.45	323.53	-445.45	136.68	194.24	-1096.5	46.092	532.25	-1192.4	144.68	508.44	-1183.6	149.84	405.33	-571.57	163.84	312.78	-596.44	146.63	245.12	-644.21	56.259	282.73	-1295.4	137.29	452.9	-621.64	36.776	248.99	-1295.1	113.57	487.26	-610.01	38.444	313.54	-1291.5	108.44	426.53	-1186.8	445.31	537.16	-1121	420.1	557.74	-1135.1	347.17	539.85	-1188.1	362.35	527.42	-1012.5	865.67	583.59	-940.74	866.6	595.09	-959.67	777.37	584.14	-1027.5	777.63	571.88	-685.17	519.39	249.94	-732.97	493.75	239.13	-709.17	435.07	243.24	-666.33	466.13	254.37	-788.83	829.55	221.06	-852.33	813.2	192.38	-820.84	745.24	208.26	-763.63	761.06	234.56
3	0.0083603	-591.34	1747.3	339	-797.12	1553.3	596.32	-877.3	1553.3	144.44	-848.66	1089.8	574.64	-837.2	1029.5	221.8	-1061.8	1102.5	437.02	-1047.7	1088.4	308.15	-1072.8	1066.8	371.48	-880.48	1146	183.44	-874.74	1200.6	580.52	-889.33	948.66	177.13	-932.63	986.87	608.69	-1048.4	593.64	541.71	-899.41	573.3	418.36	-730.91	567.97	400.79	-759.22	570.14	242.61	-989.86	64.529	443.6	-358.74	217.73	268.53	-1070.9	52.297	397.91	-413.22	153.6	323.99	-439.5	135.67	194.82	-1096.4	46.148	532.22	-1191.8	145.26	508.31	-1182.9	150.28	405.17	-565.5	162.97	313.33	-590.47	145.66	245.82	-638.22	55.593	283.63	-1295	138.35	452.71	-615.71	36.061	249.89	-1294.7	114.61	487.1	-604.01	37.743	314.43	-1291	109.42	426.35	-1184.3	445.84	536.85	-1118.7	420.24	557.49	-1133.2	347.42	539.59	-1186.1	362.91	527.13	-1008.1	865.18	583.2	-936.39	865.89	594.76	-955.6	776.71	583.8	-1023.4	777.22	571.51	-679.28	518.41	250.12	-727.08	492.75	239.37	-703.25	434.09	243.57	-660.41	465.18	254.59	-782.97	828.69	221.24	-846.42	812.28	192.48	-814.88	744.36	208.5	-757.77	760.22	234.84
4	0.01254	-585.97	1746	338.12	-791.76	1552	595.57	-872.23	1552.1	143.78	-843.22	1088.7	574.19	-831.57	1028.5	221.4	-1056.4	1101.5	436.27	-1042.3	1087.2	307.43	-1067.4	1065.8	370.75	-874.56	1144.9	182.93	-869.67	1199.6	579.97	-883.48	947.54	176.84	-927.74	986.05	608.31	-1044.9	593.28	541.43	-895.33	572.47	418.66	-724.63	567.21	400.84	-753.14	569.13	242.71	-989.82	64.546	443.56	-352.54	216.55	268.91	-1070.8	52.183	397.9	-407.07	152.6	324.47	-433.5	134.52	195.43	-1096.2	46.209	532.19	-1191.2	145.87	508.18	-1182.1	150.74	405.02	-559.36	162.03	313.89	-584.45	144.62	246.52	-632.22	54.937	284.55	-1294.5	139.46	452.52	-609.79	35.344	250.81	-1294.3	115.7	486.93	-598.02	37.03	315.35	-1290.5	110.45	426.18	-1181.7	446.39	536.54	-1116.3	420.37	557.24	-1131.2	347.66	539.33	-1184	363.49	526.84	-1003.6	864.67	582.8	-931.89	865.14	594.43	-951.38	776.02	583.47	-1019.2	776.78	571.13	-673.2	517.4	250.28	-721	491.73	239.59	-697.16	433.08	243.88	-654.32	464.18	254.8	-776.91	827.81	221.43	-840.31	811.34	192.58	-808.71	743.46	208.73	-751.7	759.35	235.12
5	0.016721	-580.45	1744.6	337.2	-786.24	1550.8	594.77	-867	1550.8	143.08	-837.64	1087.6	573.74	-825.78	1027.4	221	-1050.9	1100.5	435.51	-1036.7	1086	306.69	-1061.8	1064.6	369.99	-868.47	1143.8	182.39	-864.44	1198.5	579.42	-877.45	946.39	176.56	-922.7	985.2	607.91	-1041.2	592.91	541.15	-891.13	571.61	418.97	-718.2	566.43	400.89	-746.89	568.12	242.78	-989.78	64.564	443.52	-346.29	215.14	269.33	-1070.7	52.064	397.9	-400.93	151.41	324.98	-427.5	133.22	196.07	-1096.1	46.276	532.16	-1190.6	146.51	508.04	-1181.3	151.23	404.87	-553.22	161.01	314.45	-578.45	143.51	247.22	-626.29	54.303	285.47	-1294.1	140.63	452.31	-603.96	34.635	251.73	-1293.8	116.83	486.76	-592.11	36.314	316.28	-1290	111.53	426	-1179	446.96	536.23	-1113.8	420.51	556.98	-1129.2	347.91	539.08	-1181.8	364.08	526.54	-998.95	864.14	582.4	-927.25	864.37	594.1	-947.03	775.31	583.14	-1014.8	776.32	570.75	-666.97	516.34	250.43	-714.79	490.69	239.8	-690.96	432.03	244.18	-648.1	463.13	255	-770.68	826.92	221.62	-834.02	810.38	192.69	-802.38	742.55	208.97	-745.46	758.47	235.4
6	0.020901	-574.82	1743.3	336.27	-780.61	1549.5	593.94	-861.65	1549.5	142.34	-831.95	1086.5	573.29	-819.84	1026.4	220.61	-1045.3	1099.4	434.74	-1030.9	1084.8	305.95	-1056.2	1063.5	369.23	-862.25	1142.6	181.84	-859.06	1197.4	578.87	-871.27	945.23	176.27	-917.54	984.32	607.52	-1037.4	592.53	540.88	-886.81	570.73	419.29	-711.66	565.65	400.92	-740.5	567.1	242.83	-989.73	64.58	443.48	-340.03	213.49	269.76	-1070.6	51.94	397.89	-394.84	150.03	325.5	-421.57	131.75	196.72	-1095.9	46.348	532.12	-1189.9	147.18	507.91	-1180.4	151.74	404.73	-547.14	159.91	315.02	-572.51	142.33	247.91	-620.5	53.707	286.39	-1293.6	141.84	452.11	-598.28	33.946	252.66	-1293.4	118	486.58	-586.36	35.604	317.2	-1289.4	112.65	425.83	-1176.3	447.54	535.91	-1111.2	420.65	556.73	-1127.1	348.17	538.83	-1179.6	364.69	526.25	-994.19	863.58	581.98	-922.5	863.58	593.78	-942.57	774.58	582.81	-1010.3	775.83	570.36	-660.62	515.25	250.55	-708.47	489.63	239.98	-684.68	430.96	244.46	-641.79	462.03	255.18	-764.31	826.01	221.82	-827.61	809.42	192.8	-795.91	741.62	209.2	-739.09	757.58	235.68
7	0.025081	-569.1	1741.9	335.31	-774.87	1548.2	593.08	-856.2	1548.2	141.57	-826.19	1085.3	572.85	-813.79	1025.3	220.23	-1039.5	1098.3	433.97	-1025.1	1083.6	305.21	-1050.4	1062.4	368.46	-855.92	1141.5	181.29	-853.55	1196.3	578.31	-864.97	944.05	175.99	-912.3	983.42	607.13	-1033.5	592.12	540.61	-882.39	569.84	419.62	-705.05	564.86	400.93	-733.99	566.1	242.84	-989.69	64.595	443.45	-333.82	211.58	270.22	-1070.5	51.811	397.89	-388.87	148.45	326.04	-415.75	130.11	197.38	-1095.7	46.424	532.09	-1189.3	147.87	507.77	-1179.5	152.28	404.59	-541.17	158.74	315.57	-566.7	141.09	248.59	-614.9	53.163	287.29	-1293	143.09	451.9	-592.82	33.291	253.58	-1292.9	119.22	486.41	-580.83	34.913	318.12	-1288.8	113.82	425.65	-1173.4	448.14	535.6	-1108.5	420.79	556.48	-1124.9	348.43	538.59	-1177.3	365.31	525.95	-989.33	863.01	581.56	-917.66	862.77	593.45	-938.01	773.83	582.49	-1005.8	775.32	569.96	-654.19	514.14	250.65	-702.09	488.58	240.13	-678.36	429.88	244.71	-635.42	460.91	255.34	-757.85	825.1	222.03	-821.09	808.45	192.91	-789.33	740.7	209.41	-732.6	756.69	235.95
8	0.029261	-563.3	1740.5	334.34	-769.05	1547	592.17	-850.65	1546.8	140.76	-820.38	1084.1	572.42	-807.63	1024.3	219.86	-1033.7	1097.2	433.2	-1019.1	1082.3	304.46	-1044.5	1061.2	367.69	-849.51	1140.3	180.72	-847.94	1195.2	577.76	-858.57	942.87	175.72	-906.98	982.5	606.75	-1029.6	591.7	540.35	-877.89	568.94	419.95	-698.39	564.09	400.93	-727.41	565.13	242.82	-989.65	64.608	443.41	-327.69	209.39	270.7	-1070.4	51.677	397.89	-383.07	146.66	326.59	-410.1	128.31	198.05	-1095.5	46.505	532.06	-1188.6	148.6	507.64	-1178.6	152.84	404.46	-535.37	157.5	316.11	-561.06	139.79	249.25	-609.55	52.686	288.17	-1292.4	144.39	451.69	-587.63	32.683	254.48	-1292.3	120.48	486.24	-575.57	34.253	319.02	-1288.2	115.04	425.49	-1170.5	448.75	535.28	-1105.8	420.92	556.23	-1122.7	348.69	538.35	-1174.9	365.94	525.65	-984.39	862.42	581.14	-912.74	861.94	593.14	-933.38	773.07	582.19	-1001.1	774.79	569.57	-647.7	513.02	250.73	-695.66	487.53	240.26	-672.04	428.8	244.93	-629.04	459.75	255.48	-751.3	824.18	222.23	-814.49	807.48	193.01	-782.69	739.77	209.62	-726.04	755.78	236.2
9	0.033441	-557.45	1739.1	333.34	-763.18	1545.7	591.24	-845.03	1545.4	139.92	-814.52	1082.9	572	-801.4	1023.2	219.5	-1027.7	1096.1	432.43	-1013.1	1081.1	303.72	-1038.5	1060.1	366.92	-843.04	1139.2	180.15	-842.24	1194.1	577.2	-852.09	941.69	175.45	-901.6	981.56	606.37	-1025.5	591.27	540.11	-873.33	568.02	420.29	-691.71	563.32	400.92	-720.76	564.19	242.77	-989.61	64.618	443.37	-321.69	206.93	271.2	-1070.3	51.538	397.89	-377.46	144.66	327.15	-404.66	126.34	198.72	-1095.3	46.589	532.03	-1187.8	149.35	507.51	-1177.6	153.43	404.34	-529.76	156.2	316.63	-555.62	138.45	249.87	-604.48	52.292	289	-1291.8	145.73	451.49	-582.74	32.136	255.34	-1291.8	121.78	486.06	-570.63	33.637	319.89	-1287.6	116.3	425.33	-1167.5	449.38	534.98	-1103	421.06	555.99	-1120.4	348.95	538.13	-1172.4	366.58	525.36	-979.38	861.81	580.71	-907.76	861.11	592.83	-928.67	772.29	581.9	-996.37	774.24	569.18	-641.18	511.88	250.78	-689.22	486.51	240.35	-665.73	427.73	245.11	-622.65	458.58	255.59	-744.7	823.27	222.42	-807.85	806.51	193.11	-776	738.84	209.8	-719.42	754.88	236.42
